<svg xmlns="http://www.w3.org/2000/svg" width="32" height="32" viewBox="0 0 32 32">
  <g id="Best-Customer-Service" transform="translate(110.998 27)">
    <path id="Union_7" data-name="Union 7" d="M20684,13979a16,16,0,1,1,16,16A16.022,16.022,0,0,1,20684,13979Zm1.809,0a14.188,14.188,0,1,0,14.193-14.188A14.207,14.207,0,0,0,20685.809,13979Zm7.43,3.562a.906.906,0,0,1,1.445-1.092,6.641,6.641,0,0,0,10.633,0,.906.906,0,0,1,1.445,1.092,8.455,8.455,0,0,1-13.523,0Zm11.287-6.582a1.508,1.508,0,0,1,0-3.016h.016a1.508,1.508,0,0,1,0,3.016Zm-9.057,0a1.508,1.508,0,0,1,0-3.016h.016a1.508,1.508,0,0,1,0,3.016Z" transform="translate(-20794.998 -13989.998)" fill="#333f48"/>
  </g>
</svg>
