<svg xmlns="http://www.w3.org/2000/svg" width="35" height="32" viewBox="0 0 35 32">
  <g id="books" transform="translate(-1.4 -2.4)">
    <path id="Path_6262" data-name="Path 6262" d="M2.391,2.4H12.3a7.639,7.639,0,0,1,7.594,7.667V33.4a.991.991,0,1,1-1.981,0,3.986,3.986,0,0,0-3.962-4H2.391a1,1,0,0,1-.991-1V3.4A1,1,0,0,1,2.391,2.4ZM17.909,28.932V10.067A5.647,5.647,0,0,0,12.3,4.4H3.381v23H13.947A5.888,5.888,0,0,1,17.909,28.932Z" fill="#333f48"/>
    <path id="Path_6263" data-name="Path 6263" d="M18.994,2.4H28.9a1,1,0,0,1,.991,1v25a1,1,0,0,1-.991,1H17.343a3.986,3.986,0,0,0-3.962,4,.991.991,0,1,1-1.981,0V10.067A7.639,7.639,0,0,1,18.994,2.4Zm8.915,2H18.994a5.647,5.647,0,0,0-5.613,5.667V28.932A5.888,5.888,0,0,1,17.343,27.4H27.909Z" transform="translate(6.509)" fill="#333f48"/>
  </g>
</svg>
