<svg xmlns="http://www.w3.org/2000/svg" width="29" height="32" viewBox="0 0 29 32">
  <g id="Free-Shipping" transform="translate(-2.4 -1.402)">
    <path id="Union_5" data-name="Union 5" d="M12.531,31.355,1.964,25.338A3.913,3.913,0,0,1,0,21.953V9.92A3.894,3.894,0,0,1,.434,8.137a.841.841,0,0,1,.094-.229.819.819,0,0,1,.18-.221A3.862,3.862,0,0,1,1.964,6.541l5-2.846a.9.9,0,0,1,.657-.375l4.916-2.8A3.93,3.93,0,0,1,14.5,0a4,4,0,0,1,1.972.523L27.03,6.533A3.959,3.959,0,0,1,28.3,7.688a.949.949,0,0,1,.179.221.822.822,0,0,1,.092.23A3.88,3.88,0,0,1,29,9.92V21.953a3.915,3.915,0,0,1-1.962,3.385L16.463,31.355a4,4,0,0,1-3.931,0ZM1.811,9.928V21.953a2.111,2.111,0,0,0,1.061,1.82l10.562,6.018a2.3,2.3,0,0,0,1.063.285,2.152,2.152,0,0,0,1.061-.285l10.578-6.018a2.12,2.12,0,0,0,1.053-1.82V9.92a2.126,2.126,0,0,0-.012-.225L14.95,16.73a.83.83,0,0,1-.453.129.871.871,0,0,1-.455-.129L1.826,9.7A1.826,1.826,0,0,0,1.811,9.928ZM14.5,14.912l4.993-2.879L7.778,5.313,2.864,8.107l-.086.053Zm6.8-3.92,4.92-2.836c-.031-.02-.061-.039-.094-.057L15.558,2.092a2.091,2.091,0,0,0-2.115,0L9.6,4.275Z" transform="translate(2.4 1.402)" fill="#333f48"/>
    <path id="Line_3" data-name="Line 3" d="M.306,16.364a.9.9,0,0,1-.906-.9V.3A.9.9,0,0,1,.306-.6a.9.9,0,0,1,.906.9v15.16A.9.9,0,0,1,.306,16.364Z" transform="translate(16.595 17.038)" fill="#333f48"/>
  </g>
</svg>
