<svg xmlns="http://www.w3.org/2000/svg" width="26" height="32" viewBox="0 0 26 32">
  <g id="Guaranteed-Lowest-Price" transform="translate(-3.4 -1.4)">
    <path id="Path_6262" data-name="Path 6262" d="M16.4,33.4a.908.908,0,0,1-.406-.1,32.81,32.81,0,0,1-6.238-4.279,22.164,22.164,0,0,1-4.332-4.971A12.618,12.618,0,0,1,3.4,17.4V6.834a.906.906,0,0,1,.589-.848L16.082,1.458a.908.908,0,0,1,.637,0L28.811,5.986a.906.906,0,0,1,.589.848V17.4a12.618,12.618,0,0,1-2.024,6.654,22.164,22.164,0,0,1-4.332,4.971A32.81,32.81,0,0,1,16.806,33.3.908.908,0,0,1,16.4,33.4ZM5.214,7.462V17.4c0,7.494,9.134,12.94,11.186,14.068a32.243,32.243,0,0,0,5.479-3.832,20.307,20.307,0,0,0,3.963-4.549A10.833,10.833,0,0,0,27.586,17.4V7.462L16.4,3.273Z" transform="translate(0)" fill="#333f48"/>
    <path id="Path_6263" data-name="Path 6263" d="M12.33,17.249a.9.9,0,0,1-.641-.265L8.666,13.965a.906.906,0,1,1,1.283-1.281l2.382,2.378,5.405-5.4a.906.906,0,0,1,1.283,1.281l-6.047,6.038A.9.9,0,0,1,12.33,17.249Z" transform="translate(2.558 4.075)" fill="#333f48"/>
  </g>
</svg>
