<svg xmlns="http://www.w3.org/2000/svg" width="17.718" height="20.66" viewBox="0 0 17.718 20.66">
  <g id="user" transform="translate(-4 -3.507)">
    <path id="Path_47031" data-name="Path 47031" d="M12.03,2a5.03,5.03,0,1,0,5.03,5.03A5.03,5.03,0,0,0,12.03,2ZM9.012,7.03a3.018,3.018,0,1,1,3.018,3.018A3.018,3.018,0,0,1,9.012,7.03Z" transform="translate(0.829 1.507)" fill="#fff" fill-rule="evenodd"/>
    <path id="Path_47032" data-name="Path 47032" d="M7.188,17.188a3.322,3.322,0,0,1,2.349-.973h6.644A3.322,3.322,0,0,1,19.5,19.537v3.322h2.215V19.537A5.537,5.537,0,0,0,16.181,14H9.537A5.537,5.537,0,0,0,4,19.537v3.322H6.215V19.537A3.322,3.322,0,0,1,7.188,17.188Z" transform="translate(0 1.308)" fill="#fff"/>
  </g>
</svg>
