<svg xmlns="http://www.w3.org/2000/svg" width="20" height="20" viewBox="0 0 20 20">
  <g id="layout-list" transform="translate(-2.25 -2.25)">
    <path id="Rectangle_1973" data-name="Rectangle 1973" d="M-.083-.75H6.794a.683.683,0,0,1,.667.7V7.183a.683.683,0,0,1-.667.7H-.083a.683.683,0,0,1-.667-.7V-.052A.683.683,0,0,1-.083-.75ZM6.127.645H.583v5.84H6.127Z" transform="translate(3 14.37)" fill="#72797e"/>
    <path id="Rectangle_1974" data-name="Rectangle 1974" d="M-.083-.75H6.794a.683.683,0,0,1,.667.7V7.183a.683.683,0,0,1-.667.7H-.083a.683.683,0,0,1-.667-.7V-.052A.683.683,0,0,1-.083-.75ZM6.127.645H.583v5.84H6.127Z" transform="translate(3 3)" fill="#72797e"/>
    <path id="Line_1" data-name="Line 1" d="M7.776.645H-.083a.683.683,0,0,1-.667-.7.683.683,0,0,1,.667-.7h7.86a.683.683,0,0,1,.667.7A.683.683,0,0,1,7.776.645Z" transform="translate(13.807 4.034)" fill="#72797e"/>
    <path id="Line_2" data-name="Line 2" d="M7.776.645H-.083a.683.683,0,0,1-.667-.7.683.683,0,0,1,.667-.7h7.86a.683.683,0,0,1,.667.7A.683.683,0,0,1,7.776.645Z" transform="translate(13.807 9.202)" fill="#72797e"/>
    <path id="Line_3" data-name="Line 3" d="M7.776.645H-.083a.683.683,0,0,1-.667-.7.683.683,0,0,1,.667-.7h7.86a.683.683,0,0,1,.667.7A.683.683,0,0,1,7.776.645Z" transform="translate(13.807 15.403)" fill="#72797e"/>
    <path id="Line_4" data-name="Line 4" d="M7.776.645H-.083a.683.683,0,0,1-.667-.7.683.683,0,0,1,.667-.7h7.86a.683.683,0,0,1,.667.7A.683.683,0,0,1,7.776.645Z" transform="translate(13.807 20.571)" fill="#72797e"/>
  </g>
</svg>
