<svg xmlns="http://www.w3.org/2000/svg" width="20" height="20" viewBox="0 0 20 20">
  <g id="layout-list" transform="translate(-2.25 -2.25)">
    <path id="Rectangle_1973" data-name="Rectangle 1973" d="M-.083-.75H6.794a.683.683,0,0,1,.667.7V7.183a.683.683,0,0,1-.667.7H-.083a.683.683,0,0,1-.667-.7V-.052A.683.683,0,0,1-.083-.75ZM6.127.645H.583v5.84H6.127Z" transform="translate(3 14.37)" fill="#333f48"/>
    <path id="Rectangle_1974" data-name="Rectangle 1974" d="M-.083-.75H6.794a.683.683,0,0,1,.667.7V7.183a.683.683,0,0,1-.667.7H-.083a.683.683,0,0,1-.667-.7V-.052A.683.683,0,0,1-.083-.75ZM6.127.645H.583v5.84H6.127Z" transform="translate(3 3)" fill="#333f48"/>
    <path id="Rectangle_1973-2" data-name="Rectangle 1973" d="M-.083-.75H6.794a.683.683,0,0,1,.667.7V7.183a.683.683,0,0,1-.667.7H-.083a.683.683,0,0,1-.667-.7V-.052A.683.683,0,0,1-.083-.75ZM6.127.645H.583v5.84H6.127Z" transform="translate(14.79 14.369)" fill="#333f48"/>
    <path id="Rectangle_1974-2" data-name="Rectangle 1974" d="M-.083-.75H6.794a.683.683,0,0,1,.667.7V7.183a.683.683,0,0,1-.667.7H-.083a.683.683,0,0,1-.667-.7V-.052A.683.683,0,0,1-.083-.75ZM6.127.645H.583v5.84H6.127Z" transform="translate(14.79 3)" fill="#333f48"/>
  </g>
</svg>
