<svg xmlns="http://www.w3.org/2000/svg" width="17" height="20" viewBox="0 0 17 20">
  <g id="Location" transform="translate(-2)">
    <path id="Path_6016" data-name="Path 6016" d="M10.5,0A8.427,8.427,0,0,1,19,8.333a9.381,9.381,0,0,1-1.3,4.553,17.663,17.663,0,0,1-2.759,3.625,25.678,25.678,0,0,1-3.971,3.349.864.864,0,0,1-.943,0,25.678,25.678,0,0,1-3.971-3.349A17.663,17.663,0,0,1,3.3,12.886,9.381,9.381,0,0,1,2,8.333,8.427,8.427,0,0,1,10.5,0Zm0,18.142c1.612-1.173,6.8-5.3,6.8-9.809a6.742,6.742,0,0,0-6.8-6.667A6.742,6.742,0,0,0,3.7,8.333C3.7,12.844,8.888,16.969,10.5,18.142Z" fill="#333f48"/>
    <path id="Ellipse_34" data-name="Ellipse 34" d="M2.4-1A3.371,3.371,0,0,1,5.8,2.333,3.371,3.371,0,0,1,2.4,5.667,3.371,3.371,0,0,1-1,2.333,3.371,3.371,0,0,1,2.4-1Zm0,5A1.685,1.685,0,0,0,4.1,2.333,1.685,1.685,0,0,0,2.4.667,1.685,1.685,0,0,0,.7,2.333,1.685,1.685,0,0,0,2.4,4Z" transform="translate(8.1 6)" fill="#333f48"/>
  </g>
</svg>
